<?xml version="1.0" encoding="UTF-8" standalone="no"?>
<!-- Creator: CorelDRAW 2018 (64-Bit) -->
<svg xmlns:dc="http://purl.org/dc/elements/1.1/" xmlns:cc="http://creativecommons.org/ns#" xmlns:rdf="http://www.w3.org/1999/02/22-rdf-syntax-ns#" xmlns:svg="http://www.w3.org/2000/svg" xmlns="http://www.w3.org/2000/svg" xmlns:sodipodi="http://sodipodi.sourceforge.net/DTD/sodipodi-0.dtd" xmlns:inkscape="http://www.inkscape.org/namespaces/inkscape" xml:space="preserve" width="408.505mm" height="228.33659mm" version="1.0" style="clip-rule:evenodd;fill-rule:evenodd;image-rendering:optimizeQuality;shape-rendering:geometricPrecision;text-rendering:geometricPrecision" viewBox="0 0 40850.5 22833.659" id="svg36" sodipodi:docname="cassete.svg" inkscape:version="0.92.4 (5da689c313, 2019-01-14)"><metadata id="metadata40"><rdf:RDF><cc:Work rdf:about=""><dc:format>image/svg+xml</dc:format><dc:type rdf:resource="http://purl.org/dc/dcmitype/StillImage"/><dc:title/></cc:Work></rdf:RDF></metadata><sodipodi:namedview pagecolor="#ffffff" bordercolor="#666666" borderopacity="1" objecttolerance="10" gridtolerance="10" guidetolerance="10" inkscape:pageopacity="0" inkscape:pageshadow="2" inkscape:window-width="1857" inkscape:window-height="1057" id="namedview38" showgrid="false" fit-margin-top="0" fit-margin-left="0" fit-margin-right="0" fit-margin-bottom="0" inkscape:zoom="0.5946522" inkscape:cx="405.42209" inkscape:cy="358.8052" inkscape:window-x="55" inkscape:window-y="-8" inkscape:window-maximized="1" inkscape:current-layer="svg36"/>
 <defs id="defs4">
  <style type="text/css" id="style2">
   <![CDATA[
    .str2 {stroke:#C5C6C6;stroke-width:20;stroke-miterlimit:22.9256;stroke-opacity:0.501961}
    .str1 {stroke:#C5C6C6;stroke-width:20;stroke-miterlimit:22.9256}
    .str4 {stroke:#2B2A29;stroke-width:20;stroke-miterlimit:22.9256}
    .str3 {stroke:#2B2A29;stroke-width:20;stroke-miterlimit:22.9256}
    .str0 {stroke:#423934;stroke-width:20;stroke-miterlimit:22.9256}
    .fil3 {fill:#373737}
    .fil0 {fill:#423934}
    .fil1 {fill:#C5C6C6}
    .fil4 {fill:#EF7F1A}
    .fil2 {fill:#C5C6C6;fill-opacity:0.501961}
   ]]>
   .bobina1,.bobina2, .lenta1, .lenta2 {
    animation-duration: 25s;
   }


    .bobina1,.bobina2 {
      animation-name: bob;
      animation-timing-function: linear;
      animation-iteration-count: infinite;
      transform-box: fill-box;
      transform-origin: 50% 50%;
    }
    @keyframes bob {
      0% {
        transform: rotate(0deg);
      }
      70% {
        transform: rotate(360deg);
      }
      100% {
        transform: rotate(0deg);
      }
    }

    .lenta1 {
      animation-name: minus;
      animation-timing-function: linear;
      animation-iteration-count: infinite;
    }
    @keyframes minus {
      0% {
        r: 7300.9399;
      }
      70% {
        r: 3000.9399;
      }
      100% {
        r: 7300.9399;
      }
    }

    .lenta2 {
      animation-name: plus;
      animation-timing-function: linear;
      animation-iteration-count: infinite;
    }
    @keyframes plus {
      0% {
        r: 7300.9399;
      }
      70% {
        r: 11600.9399;
      }
      100% {
        r: 7300.9399;
      }
    }
  </style>
 </defs>
 <g id="Слой_x0020_1" transform="translate(6790.72,-3693.57)">
  <metadata id="CorelCorpID_0Corel-Layer"/>
  <g id="sdfdfsdfsdf">
   <circle class="fil0 str0 lenta1" transform="rotate(-27.543889,35103.558,1096.0682)" r="7300.9399" id="circle7" cx="0" cy="0" style="fill:#423934;stroke:#423934;stroke-width:20;stroke-miterlimit:22.92560005"/>
   <g id="g13">
    <circle class="fil1 str1" transform="rotate(-27.543889,35103.558,1096.0682)" r="1811.84" id="circle9" cx="0" cy="0" style="fill:#c5c6c6;stroke:#c5c6c6;stroke-width:20;stroke-miterlimit:22.92560005"/>
    <path class="fil1 str1" d="m 4456.56,18245.09 c -1042.71,543.82 -2328.85,139.38 -2872.66,-903.32 -543.82,-1042.71 -139.38,-2328.85 903.32,-2872.66 1042.71,-543.82 2328.85,-139.38 2872.66,903.32 543.82,1042.71 139.38,2328.85 -903.32,2872.66 z m 166.4,319.06 c -1218.93,635.72 -2722.4,162.94 -3358.12,-1055.98 -635.72,-1218.93 -162.94,-2722.4 1055.98,-3358.12 1218.93,-635.72 2722.4,-162.94 3358.12,1055.98 635.72,1218.93 162.94,2722.4 -1055.98,3358.12 z" id="path11" inkscape:connector-curvature="0" style="fill:#c5c6c6;stroke:#c5c6c6;stroke-width:20;stroke-miterlimit:22.92560005"/>
   </g>
   <path class="fil2 str2 bobina1" d="m 12054.203,15876.229 c 265.574,4739.881 -3361.5707,8797.606 -8101.4424,9063.184 -4739.88079,265.574 -8797.6055,-3361.571 -9063.1835,-8101.442 -265.5738,-4739.881 3361.5706,-8797.6059 8101.4423,-9063.1839 4739.8808,-265.5738 8797.6056,3361.5709 9063.1836,8101.4419 z m -14754.1173,3219.64 -837.5627,548.225 c -115.0358,75.305 -147.5596,231.052 -72.2494,346.101 l 948.5935,1449.23 c 75.3053,115.036 231.0522,147.56 346.0881,72.254 l 837.5626,-548.225 c 115.0491,-75.31 147.5688,-231.048 72.2585,-346.097 l -948.5935,-1449.23 c -75.3053,-115.035 -231.0431,-147.555 -346.0971,-72.258 z m 2380.24796,-1590.851 -837.55356,548.229 c -115.0491,75.31 -147.5646,231.039 -72.2635,346.084 l 948.60265,1449.234 c 75.29204,115.04 231.043075,147.555 346.088024,72.254 l 837.549426,-548.22 c 115.0491,-75.31 147.5688,-231.048 72.26759,-346.093 L 26.421691,17577.272 c -75.301157,-115.045 -231.043081,-147.555 -346.088031,-72.254 z m 9249.29394,2827.624 893.5769,451.244 c 122.7357,61.977 273.8645,12.282 335.8325,-110.458 l 780.79,-1546.138 c 61.968,-122.74 12.264,-273.873 -110.472,-335.851 l -893.5766,-451.243 c -122.7357,-61.977 -273.86,-12.269 -335.8371,110.467 l -780.7717,1546.146 c -61.9862,122.732 -12.2777,273.856 110.458,335.833 z M 6337.5704,16196.535 C 6426.2559,17779.213 5215.1287,19134.104 3632.4548,19222.78 2049.7767,19311.466 694.88608,18100.339 606.20964,16517.665 517.52408,14934.987 1728.6513,13580.096 3311.3252,13491.42 c 1582.6781,-88.686 2937.5687,1122.441 3026.2452,2705.115 z m -1964.0276,-3696.972 -56.001,-999.474 c -7.6957,-137.291 -126.2953,-243.307 -263.5827,-235.62 l -1729.3926,96.904 c -137.2782,7.691 -243.2983,126.3 -235.6076,263.578 l 55.9968,999.483 c 7.6958,137.291 126.3045,243.311 263.5869,235.611 l 1729.3884,-96.895 c 137.2783,-7.691 243.3075,-126.295 235.6118,-263.587 z m -187.5993,-2856.7694 -55.9969,-999.4829 c -7.6957,-137.2914 -126.3044,-243.3116 -263.5868,-235.6117 l -1729.3884,96.8954 c -137.2874,7.6866 -243.3075,126.2954 -235.6077,263.5777 l 55.9969,999.4829 c 7.6866,137.2874 126.2953,243.308 263.5827,235.621 l 1729.3925,-96.9047 c 137.2783,-7.6907 243.2984,-126.2994 235.6077,-263.5777 z m 2175.841,9423.9214 893.5768,451.244 c 122.7407,61.99 273.8559,12.277 335.8329,-110.458 l 780.7809,-1546.143 c 61.9771,-122.735 12.2776,-273.856 -110.463,-335.846 l -893.5719,-451.23 c -122.7357,-61.977 -273.865,-12.282 -335.8462,110.463 l -780.7767,1546.133 c -61.9812,122.745 -12.2685,273.86 110.4672,335.837 z" id="path15" inkscape:connector-curvature="0" style="fill:#c5c6c6;fill-opacity:0.50196084;stroke:#c5c6c6;stroke-width:20;stroke-miterlimit:22.92560005;stroke-opacity:0.50196084"/>
  </g>
  <g id="_2208821843632">
   <circle class="fil0 str0 lenta2" transform="matrix(0.512202,-0.267134,0.267134,0.512202,23797.2,16357.1)" r="7300.9399" id="circle18" cx="0" cy="0" style="fill:#423934;stroke:#423934;stroke-width:20;stroke-miterlimit:22.92560005"/>
   <g id="g24">
    <circle class="fil1 str1" transform="rotate(-27.543889,45266.2,-40366.485)" r="1811.84" id="circle20" cx="0" cy="0" style="fill:#c5c6c6;stroke:#c5c6c6;stroke-width:20;stroke-miterlimit:22.92560005"/>
    <path class="fil1 str1" d="m 24781.84,18245.09 c -1042.71,543.82 -2328.85,139.38 -2872.66,-903.32 -543.82,-1042.71 -139.38,-2328.85 903.32,-2872.66 1042.71,-543.82 2328.85,-139.38 2872.66,903.32 543.82,1042.71 139.38,2328.85 -903.32,2872.66 z m 166.4,319.06 c -1218.93,635.72 -2722.4,162.94 -3358.12,-1055.98 -635.72,-1218.93 -162.94,-2722.4 1055.98,-3358.12 1218.93,-635.72 2722.4,-162.94 3358.12,1055.98 635.72,1218.93 162.94,2722.4 -1055.98,3358.12 z" id="path22" inkscape:connector-curvature="0" style="fill:#c5c6c6;stroke:#c5c6c6;stroke-width:20;stroke-miterlimit:22.92560005"/>
   </g>
   <path class="fil2 str2 bobina2" d="m 27772.1,23978.6 c -4209.24,2195.29 -9401.14,562.66 -11596.43,-3646.57 -2195.29,-4209.24 -562.66,-9401.14 3646.57,-11596.43 4209.24,-2195.29 9401.14,-562.66 11596.43,3646.57 2195.29,4209.24 562.66,9401.14 -3646.57,11596.43 z m -9013.74,-12116.21 -844.67,-537.21 c -116.02,-73.78 -271.33,-39.23 -345.12,76.8 l -929.53,1461.53 c -73.78,116.02 -39.23,271.33 76.79,345.11 l 844.67,537.21 c 116.03,73.79 271.33,39.24 345.12,-76.79 l 929.53,-1461.53 c 73.78,-116.02 39.23,-271.32 -76.79,-345.12 z m 2430.39,1513.14 -844.67,-537.2 c -116.03,-73.79 -271.32,-39.24 -345.11,76.78 l -929.53,1461.54 c -73.79,116.01 -39.23,271.32 76.79,345.11 l 844.66,537.2 c 116.03,73.79 271.33,39.24 345.12,-76.78 l 929.53,-1461.54 c 73.79,-116.02 39.23,-271.32 -76.79,-345.11 z m 1235.3,9592.65 -42.9,1000.13 c -5.89,137.37 101.67,254.59 239.04,260.47 l 1730.51,74.24 c 137.37,5.88 254.59,-101.69 260.48,-239.06 l 42.9,-1000.13 c 5.89,-137.37 -101.68,-254.58 -239.05,-260.47 l -1730.51,-74.22 c -137.37,-5.9 -254.58,101.67 -260.47,239.04 z m 2700.37,-4066.22 c -1405.49,733.03 -3139.09,187.88 -3872.11,-1217.61 -733.03,-1405.49 -187.88,-3139.09 1217.61,-3872.11 1405.49,-733.03 3139.09,-187.88 3872.11,1217.61 733.03,1405.49 187.88,3139.09 -1217.61,3872.11 z m 2559.07,-3313.03 887.58,-462.91 c 121.92,-63.59 169.64,-215.34 106.06,-337.26 l -800.98,-1535.78 c -63.58,-121.91 -215.34,-169.63 -337.25,-106.05 l -887.59,462.91 c -121.92,63.59 -169.64,215.35 -106.05,337.26 l 800.97,1535.78 c 63.58,121.91 215.34,169.64 337.26,106.05 z m 2525.6,-1348.21 887.59,-462.91 c 121.92,-63.59 169.64,-215.35 106.05,-337.26 l -800.97,-1535.78 c -63.58,-121.92 -215.34,-169.64 -337.25,-106.05 l -887.59,462.91 c -121.92,63.58 -169.64,215.34 -106.06,337.26 l 800.98,1535.78 c 63.58,121.91 215.34,169.63 337.25,106.05 z m -7689.82,5866.11 -42.9,1000.13 c -5.9,137.38 101.67,254.58 239.04,260.47 l 1730.51,74.23 c 137.37,5.89 254.58,-101.67 260.48,-239.05 l 42.89,-1000.12 c 5.89,-137.37 -101.67,-254.59 -239.05,-260.48 l -1730.5,-74.23 c -137.38,-5.89 -254.58,101.68 -260.47,239.05 z" id="path26" inkscape:connector-curvature="0" style="fill:#c5c6c6;fill-opacity:0.5019609;stroke:#c5c6c6;stroke-width:20;stroke-miterlimit:22.92560005;stroke-opacity:0.5019609"/>
  </g>
  <path class="fil3 str3" d="m -5865.26,26517.23 c -436.89,0 -915.46,-478.57 -915.46,-1068.92 V 9626.14 h 762 v -3556 h 39306.5 v 3556 h 762 v 15822.17 c 0,590.35 -478.57,1068.92 -915.46,1068.92 z m 37159.37,-4995.46 c 83.16,0 157.71,-36.9 207.25,-94.16 885.83,-1566.67 1373.71,-3278.21 1373.71,-5070.51 0,-1791.07 -487.21,-3501.51 -1372.8,-5068.34 -50.46,-58.95 -125.44,-96.32 -209.13,-96.32 h -7313.16 c -100.97,0 -182.81,81.84 -182.81,182.81 v 9963.71 c 0,100.97 81.84,182.81 182.81,182.81 z m -35319.16,0 c -83.16,0 -157.71,-36.9 -207.25,-94.16 -885.83,-1566.67 -1373.71,-3278.21 -1373.71,-5070.51 0,-1791.07 487.21,-3501.51 1372.8,-5068.34 50.46,-58.95 125.44,-96.32 209.13,-96.32 h 7313.16 c 100.97,0 182.81,81.84 182.81,182.81 v 9963.71 c 0,100.97 -81.84,182.81 -182.81,182.81 z" id="path29" inkscape:connector-curvature="0" style="fill:#373737;stroke:#2b2a29;stroke-width:20;stroke-miterlimit:22.92560005"/>
  <path class="fil4 str4" d="m 4977.34,21521.77 c -210.42,0 -381,-170.58 -381,-381 v -9567.33 c 0,-210.42 170.58,-381 381,-381 h 17314.38 c 210.42,0 381,170.58 381,381 v 9567.33 c 0,210.42 -170.58,381 -381,381 z" id="path31" inkscape:connector-curvature="0" style="fill:#ef7f1a;stroke:#2b2a29;stroke-width:20;stroke-miterlimit:22.92560005"/>
  <polygon class="fil3 str4" points="33742.22,9460.91 33898.29,8725.36 33898.29,4153.35 33699.88,3703.57 -6430.82,3703.57 -6629.23,4153.35 -6629.23,8725.36 -6473.16,9460.91 -6078.88,9460.91 -6078.88,5978.99 33347.94,5978.99 33347.94,9460.91 " id="polygon33" style="fill:#373737;stroke:#2b2a29;stroke-width:20;stroke-miterlimit:22.92560005"/>
 </g>
</svg>